<svg width="13" height="16" viewBox="0 0 13 16" fill="none" xmlns="http://www.w3.org/2000/svg">
<path d="M10.869 8.45511C10.8621 7.14416 11.4354 6.15469 12.5959 5.42599C11.9466 4.4651 10.9657 3.93643 9.67056 3.83284C8.44447 3.73282 7.10441 4.57226 6.61397 4.57226C6.09591 4.57226 4.90781 3.86856 3.97529 3.86856C2.04809 3.90071 0 5.45814 0 8.62657C0 9.56245 0.165781 10.5293 0.497343 11.5271C0.939426 12.8381 2.53507 16.0529 4.19979 15.9993C5.07014 15.9779 5.68491 15.3599 6.81775 15.3599C7.91605 15.3599 8.48592 15.9993 9.45643 15.9993C11.135 15.9743 12.5786 13.0524 13 11.7378C10.7481 10.6412 10.869 8.52298 10.869 8.45511ZM8.91419 2.58976C9.85707 1.4324 9.77072 0.37864 9.74309 0C8.91073 0.0500091 7.94713 0.585821 7.39798 1.24666C6.79357 1.95393 6.43783 2.82909 6.51381 3.81498C7.41525 3.88642 8.23725 3.40776 8.91419 2.58976Z" fill="white"/>
</svg>
