<svg width="24" height="24" viewBox="0 0 24 24" fill="none" xmlns="http://www.w3.org/2000/svg">
<rect width="24" height="24" rx="5" fill="#ACACAC"/>
<path d="M11.7083 8.40283L4.66696 14.156V20.3652C4.66696 20.526 4.73134 20.6802 4.84593 20.7939C4.96053 20.9076 5.11596 20.9714 5.27802 20.9714L9.55776 20.9604C9.71929 20.9596 9.87394 20.8954 9.98787 20.7818C10.1018 20.6682 10.1658 20.5145 10.1658 20.3543V16.7281C10.1658 16.5673 10.2301 16.4131 10.3447 16.2995C10.4593 16.1858 10.6148 16.1219 10.7768 16.1219H13.2211C13.3832 16.1219 13.5386 16.1858 13.6532 16.2995C13.7678 16.4131 13.8322 16.5673 13.8322 16.7281V20.3516C13.8319 20.4314 13.8475 20.5104 13.8781 20.5842C13.9087 20.6579 13.9537 20.725 14.0105 20.7815C14.0672 20.838 14.1347 20.8828 14.2089 20.9134C14.2832 20.9439 14.3628 20.9597 14.4432 20.9597L18.7214 20.9714C18.8835 20.9714 19.0389 20.9076 19.1535 20.7939C19.2681 20.6802 19.3325 20.526 19.3325 20.3652V14.1518L12.2927 8.40283C12.2099 8.33666 12.1068 8.30057 12.0005 8.30057C11.8942 8.30057 11.7911 8.33666 11.7083 8.40283ZM22.8308 12.3131L19.638 9.70235V4.45464C19.638 4.33406 19.5897 4.21842 19.5038 4.13316C19.4178 4.0479 19.3013 4 19.1797 4H17.041C16.9195 4 16.8029 4.0479 16.7169 4.13316C16.631 4.21842 16.5827 4.33406 16.5827 4.45464V7.20561L13.1634 4.41486C12.8353 4.14699 12.4235 4.00054 11.9986 4.00054C11.5736 4.00054 11.1619 4.14699 10.8337 4.41486L1.16632 12.3131C1.11992 12.3512 1.08152 12.3979 1.05333 12.4507C1.02514 12.5035 1.00771 12.5613 1.00204 12.6207C0.996366 12.6802 1.00256 12.7402 1.02026 12.7973C1.03796 12.8543 1.06683 12.9074 1.10522 12.9534L2.0791 14.1279C2.11738 14.1741 2.16446 14.2123 2.21766 14.2404C2.27085 14.2685 2.32911 14.2859 2.3891 14.2917C2.44909 14.2974 2.50962 14.2914 2.56725 14.2739C2.62487 14.2564 2.67845 14.2277 2.72492 14.1897L11.7083 6.84947C11.7911 6.78329 11.8942 6.7472 12.0005 6.7472C12.1068 6.7472 12.2099 6.78329 12.2927 6.84947L21.2764 14.1897C21.3228 14.2278 21.3763 14.2564 21.4339 14.274C21.4914 14.2915 21.5519 14.2977 21.6118 14.292C21.6718 14.2864 21.73 14.2691 21.7832 14.2411C21.8364 14.2132 21.8835 14.1751 21.9219 14.1291L22.8958 12.9546C22.9341 12.9083 22.9629 12.8549 22.9803 12.7976C22.9978 12.7403 23.0037 12.6801 22.9977 12.6205C22.9917 12.5609 22.9738 12.503 22.9452 12.4503C22.9165 12.3975 22.8777 12.3509 22.8308 12.3131Z" fill="#6F6E68"/>
</svg>
