<svg width="25" height="22" viewBox="0 0 25 22" fill="none" xmlns="http://www.w3.org/2000/svg">
<path d="M20.4199 7.08923C20.1562 7.00134 19.8926 6.91833 19.6289 6.84021C19.6729 6.65954 19.7119 6.47888 19.751 6.29822C20.3516 3.38806 19.9561 1.04919 18.623 0.27771C17.3389 -0.459595 15.2441 0.307006 13.125 2.15271C12.915 2.33337 12.71 2.5238 12.5146 2.71423C12.3828 2.58728 12.2461 2.46033 12.1094 2.33826C9.8877 0.3656 7.66113 -0.464478 6.32813 0.311889C5.04883 1.05408 4.66797 3.25623 5.20508 6.01013C5.25879 6.28357 5.31738 6.55212 5.38574 6.82556C5.07324 6.91345 4.76562 7.01111 4.47754 7.11365C1.87012 8.01697 0 9.44275 0 10.9174C0 12.4408 1.99219 13.9691 4.70215 14.8968C4.92188 14.9701 5.1416 15.0433 5.36621 15.1068C5.29297 15.3998 5.22949 15.6879 5.1709 15.9857C4.6582 18.6957 5.05859 20.8441 6.33789 21.5814C7.65625 22.3431 9.87305 21.5619 12.0312 19.6722C12.2021 19.5209 12.373 19.3646 12.5439 19.1986C12.7588 19.4086 12.9834 19.6088 13.208 19.8041C15.2979 21.601 17.3633 22.3285 18.6377 21.5912C19.9561 20.8295 20.3857 18.5199 19.8291 15.7074C19.7852 15.4926 19.7363 15.2728 19.6826 15.0482C19.8389 15.0043 19.9902 14.9554 20.1416 14.9066C22.959 13.974 25 12.4652 25 10.9174C25 9.43787 23.0762 8.00232 20.4199 7.08923ZM13.8135 2.94373C15.6299 1.36169 17.3242 0.741577 18.0957 1.18591C18.9209 1.65955 19.2383 3.57361 18.7207 6.08826C18.6865 6.25427 18.6523 6.4154 18.6084 6.57654C17.5244 6.3324 16.4258 6.15662 15.3223 6.05896C14.6875 5.15076 13.9941 4.28162 13.2422 3.46619C13.4326 3.28552 13.6182 3.11462 13.8135 2.94373ZM8.16406 13.4515C8.41309 13.8763 8.66699 14.3011 8.93555 14.7162C8.17383 14.6332 7.41699 14.5111 6.66992 14.35C6.88477 13.6468 7.15332 12.9193 7.46582 12.1771C7.69043 12.6068 7.91992 13.0316 8.16406 13.4515ZM6.68457 7.57751C7.38769 7.42126 8.13477 7.29431 8.91113 7.19665C8.65234 7.60193 8.39844 8.01697 8.15918 8.43689C7.91992 8.85193 7.68555 9.27673 7.46582 9.70642C7.1582 8.97888 6.89941 8.26599 6.68457 7.57751ZM8.02246 10.9418C8.34473 10.2679 8.69629 9.60876 9.06738 8.95935C9.43848 8.30994 9.83887 7.68005 10.2588 7.05994C10.9912 7.00622 11.7383 6.97693 12.5 6.97693C13.2617 6.97693 14.0137 7.00622 14.7412 7.05994C15.1562 7.67517 15.5518 8.30505 15.9277 8.94958C16.3037 9.59412 16.6553 10.2533 16.9873 10.9222C16.6602 11.5961 16.3086 12.2601 15.9326 12.9144C15.5615 13.5638 15.166 14.1937 14.751 14.8187C14.0234 14.8724 13.2666 14.8968 12.5 14.8968C11.7334 14.8968 10.9912 14.8724 10.2734 14.8285C9.84863 14.2084 9.44824 13.5736 9.07227 12.9242C8.69629 12.2748 8.34961 11.6156 8.02246 10.9418ZM16.8408 13.4418C17.0898 13.0121 17.3242 12.5775 17.5537 12.1381C17.8662 12.8461 18.1396 13.5638 18.3789 14.3011C17.6221 14.472 16.8555 14.6039 16.084 14.6918C16.3477 14.2816 16.5967 13.8617 16.8408 13.4418ZM17.5439 9.70642C17.3145 9.27673 17.0801 8.84704 16.8359 8.42712C16.5967 8.01208 16.3477 7.60193 16.0889 7.19665C16.875 7.29431 17.627 7.42615 18.3301 7.58728C18.1055 8.30994 17.8418 9.01306 17.5439 9.70642ZM12.5098 4.21326C13.0225 4.7699 13.5059 5.35583 13.9551 5.9613C12.9883 5.91736 12.0166 5.91736 11.0498 5.9613C11.5283 5.33142 12.0215 4.74548 12.5098 4.21326ZM6.8457 1.22009C7.66602 0.741577 9.4873 1.42517 11.4062 3.12439C11.5283 3.23181 11.6504 3.349 11.7773 3.46619C11.0205 4.28162 10.3223 5.15076 9.68262 6.05896C8.5791 6.15662 7.48535 6.32751 6.40137 6.56677C6.33789 6.31775 6.28418 6.06384 6.23047 5.80994C5.77148 3.44665 6.07422 1.66443 6.8457 1.22009ZM5.64941 14.0912C5.44434 14.0326 5.24414 13.9691 5.04395 13.9008C4.00391 13.5736 2.82227 13.056 1.96777 12.3773C1.47461 12.0355 1.14258 11.5082 1.0498 10.9174C1.0498 10.0238 2.59277 8.88122 4.81934 8.10486C5.09766 8.0072 5.38086 7.91931 5.66406 7.8363C5.99609 8.89587 6.39648 9.93591 6.86035 10.9418C6.3916 11.9623 5.98633 13.017 5.64941 14.0912ZM11.3428 18.8763C10.5371 19.6136 9.60449 20.1996 8.58887 20.6C8.04688 20.8588 7.42188 20.8832 6.86523 20.6635C6.08887 20.2142 5.7666 18.4906 6.20605 16.1713C6.25977 15.8978 6.31836 15.6244 6.38672 15.3558C7.48047 15.5902 8.58398 15.7513 9.70215 15.8343C10.3467 16.7474 11.0547 17.6215 11.8115 18.4418C11.6553 18.5931 11.499 18.7396 11.3428 18.8763ZM12.5391 17.6898C12.041 17.1527 11.543 16.557 11.0596 15.9174C11.5283 15.9369 12.0117 15.9467 12.5 15.9467C13.0029 15.9467 13.4961 15.9369 13.9844 15.9125C13.5352 16.5326 13.0518 17.1234 12.5391 17.6898ZM18.9209 19.1547C18.877 19.7504 18.584 20.307 18.1152 20.683C17.3389 21.1322 15.6836 20.5463 13.8965 19.0131C13.6914 18.8373 13.4863 18.6468 13.2764 18.4515C14.0234 17.6263 14.7119 16.7523 15.3369 15.8343C16.4551 15.7416 17.5684 15.5707 18.667 15.3217C18.7158 15.5218 18.7598 15.722 18.7988 15.9174C19.0381 16.972 19.0771 18.0707 18.9209 19.1547ZM19.8096 13.9056C19.6729 13.9496 19.5361 13.9935 19.3945 14.0326C19.0527 12.9681 18.6328 11.9281 18.1494 10.9174C18.6182 9.92126 19.0137 8.89587 19.3457 7.84607C19.5996 7.91931 19.8437 7.99743 20.0781 8.07556C22.3535 8.85681 23.9502 10.0189 23.9502 10.9076C23.9502 11.8646 22.2461 13.1 19.8096 13.9056ZM12.5 13.1732C13.7354 13.1732 14.7363 12.1722 14.7363 10.9369C14.7363 9.70154 13.7354 8.70056 12.5 8.70056C11.2646 8.70056 10.2637 9.70154 10.2637 10.9369C10.2637 12.1722 11.2646 13.1732 12.5 13.1732Z" fill="white"/>
</svg>
