<svg width="50" height="50" viewBox="0 0 50 50" fill="none" xmlns="http://www.w3.org/2000/svg">
<rect width="50" height="50" rx="4" fill="white"/>
<path d="M11.26 11.98L17.78 12C17.7533 10.3733 17.7133 8.76667 17.66 7.18C17.1667 7.08667 16.5733 6.92667 15.88 6.7L15.94 6H20.94C21.1667 6.42667 21.28 6.82667 21.28 7.2C20.6133 7.25333 20.08 7.28 19.68 7.28L19.46 18.64L21.14 18.8C21.14 19.1733 21.0267 19.5733 20.8 20H16.2L16.14 19.3C16.7667 19.0867 17.38 18.9267 17.98 18.82L17.82 13.26H11.22C11.1933 15.66 11.18 17.4533 11.18 18.64L12.86 18.8C12.86 19.1733 12.7467 19.5733 12.52 20H7.92L7.86 19.3C8.48667 19.0867 9.1 18.9267 9.7 18.82C9.56667 13.6467 9.46 9.76667 9.38 7.18C8.88667 7.08667 8.29333 6.92667 7.6 6.7L7.66 6H12.66C12.8867 6.42667 13 6.82667 13 7.2C12.3333 7.25333 11.8 7.28 11.4 7.28C11.36 8.29333 11.3133 9.86 11.26 11.98Z" fill="black"/>
<path d="M23.54 20.132L23.428 14.854H22.35L22.308 14.364C22.4013 14.2987 22.672 14.1773 23.12 14L24.268 12.208C24.4547 12.2267 24.5993 12.2733 24.702 12.348L24.688 13.888C25.388 13.888 25.962 13.9347 26.41 14.028C26.41 14.28 26.3307 14.5553 26.172 14.854H24.66C24.6413 15.974 24.6227 17.6727 24.604 19.95C25.1267 19.978 25.6493 20.0713 26.172 20.23L26.158 20.72C26.0273 20.804 25.6913 20.902 25.15 21.014C24.618 21.126 24.1793 21.182 23.834 21.182C23.7873 21.1073 23.7267 20.9487 23.652 20.706C23.5773 20.454 23.54 20.2627 23.54 20.132ZM32.9992 16.422L32.9292 20.034C33.3305 20.062 33.7319 20.1273 34.1332 20.23L34.1052 20.72C33.9559 20.7947 33.6852 20.8787 33.2932 20.972C32.9105 21.056 32.5325 21.098 32.1592 21.098C31.9912 20.762 31.8979 20.44 31.8792 20.132C30.8152 20.832 30.0685 21.182 29.6392 21.182C28.9765 21.182 28.4445 21.0047 28.0432 20.65C27.6419 20.2953 27.4412 19.8007 27.4412 19.166C27.4412 17.7007 28.3372 16.9447 30.1292 16.898C31.1745 16.87 31.7019 16.856 31.7112 16.856L31.6972 16.38C31.6785 15.736 31.5572 15.274 31.3332 14.994C31.1092 14.7047 30.7079 14.56 30.1292 14.56C29.8865 14.56 29.6252 14.616 29.3452 14.728L29.0092 16.128C28.9625 16.1373 28.8832 16.142 28.7712 16.142L28.1972 16.1C28.0479 15.6987 27.9685 15.1433 27.9592 14.434C28.1365 14.3407 28.5425 14.2007 29.1772 14.014C29.8119 13.818 30.2179 13.72 30.3952 13.72C31.3472 13.72 32.0192 13.93 32.4112 14.35C32.8032 14.77 32.9992 15.4607 32.9992 16.422ZM29.9472 20.23C30.2179 20.23 30.8432 19.9267 31.8232 19.32L31.7532 17.57C31.1185 17.626 30.5865 17.6773 30.1572 17.724C29.7279 17.7707 29.3825 17.8967 29.1212 18.102C28.8599 18.298 28.7292 18.6107 28.7292 19.04C28.7292 19.8333 29.1352 20.23 29.9472 20.23ZM38.6141 20.146L39.8601 20.118C41.1481 20.118 41.7921 20.65 41.7921 21.714C41.7921 22.2087 41.5774 22.666 41.1481 23.086C40.7281 23.5153 40.2241 23.8373 39.6361 24.052C39.0481 24.2667 38.4974 24.374 37.9841 24.374C37.4801 24.374 37.0087 24.2993 36.5701 24.15C36.1314 24.01 35.7581 23.7767 35.4501 23.45C35.1421 23.1233 34.9881 22.7453 34.9881 22.316C34.9881 22.2133 35.1514 21.9427 35.4781 21.504C35.8141 21.0747 36.0334 20.8227 36.1361 20.748C36.0521 20.692 35.8887 20.5333 35.6461 20.272C35.4034 20.0013 35.2681 19.8147 35.2401 19.712C35.4734 19.2827 35.8421 18.8627 36.3461 18.452C35.5994 18.004 35.2261 17.2667 35.2261 16.24C35.2261 15.4187 35.4874 14.7933 36.0101 14.364C36.5327 13.9347 37.1861 13.72 37.9701 13.72C38.7541 13.72 39.3607 13.846 39.7901 14.098C40.5367 13.9487 41.2694 13.874 41.9881 13.874C42.1654 13.874 42.2541 13.9813 42.2541 14.196C42.2541 14.5693 42.1841 14.826 42.0441 14.966L40.4341 14.7C40.7701 15.1293 40.9381 15.6427 40.9381 16.24C40.9381 17.1733 40.6627 17.8453 40.1121 18.256C39.5614 18.6573 38.8847 18.858 38.0821 18.858C37.8301 18.858 37.5314 18.8253 37.1861 18.76C37.0461 19.0493 36.8687 19.362 36.6541 19.698C36.8221 19.9967 37.4754 20.146 38.6141 20.146ZM40.3921 22.722C40.4854 22.4607 40.5321 22.19 40.5321 21.91C40.5321 21.6393 40.4247 21.42 40.2101 21.252C39.9954 21.084 39.7201 21 39.3841 21C38.0494 21 37.2327 20.986 36.9341 20.958C36.6821 21.3593 36.5047 21.6953 36.4021 21.966C36.3087 22.246 36.2621 22.4047 36.2621 22.442C36.2621 22.806 36.4347 23.0767 36.7801 23.254C37.1254 23.4313 37.5221 23.52 37.9701 23.52C38.4274 23.52 38.8847 23.4453 39.3421 23.296C39.8087 23.1467 40.1587 22.9553 40.3921 22.722ZM39.6781 16.296C39.6781 15.1387 39.1461 14.56 38.0821 14.56C37.0181 14.56 36.4861 15.12 36.4861 16.24C36.4861 16.8093 36.6261 17.248 36.9061 17.556C37.1861 17.864 37.5921 18.018 38.1241 18.018C39.1601 18.018 39.6781 17.444 39.6781 16.296Z" fill="black"/>
<line x1="7" y1="27.5" x2="43" y2="27.5" stroke="#9D9D9D"/>
<line x1="7" y1="33.5" x2="32" y2="33.5" stroke="#9D9D9D"/>
<line x1="7" y1="40.5" x2="25" y2="40.5" stroke="#9D9D9D"/>
</svg>
